<svg id="レイヤー_1" data-name="レイヤー 1" xmlns="http://www.w3.org/2000/svg" viewBox="0 0 404.03 316.28"><defs><style>.cls-1{fill:none;stroke:#000;stroke-width:0.25px;}</style></defs><title>Arabica37-pedestal</title><path class="cls-1" d="M91.5,269.81V54a2.83,2.83,0,0,1,2.83-2.83H206a2.84,2.84,0,0,0,2.83-2.84V27a2.84,2.84,0,0,1,2.84-2.83H260a2.84,2.84,0,0,0,2.83-2.84V13.48a2.84,2.84,0,0,1,2.84-2.83h55.56a2.83,2.83,0,0,1,2.83,2.83v7.83a2.84,2.84,0,0,0,2.83,2.84h48.34A2.83,2.83,0,0,1,378.1,27v7.83a2.84,2.84,0,0,0,2.83,2.84H492.44a2.83,2.83,0,0,1,2.83,2.83V323.84a2.83,2.83,0,0,1-2.83,2.84H340a2.84,2.84,0,0,1-2.83-2.84V275.51a2.83,2.83,0,0,0-2.84-2.83l-239.95,0A2.83,2.83,0,0,1,91.5,269.81Z" transform="translate(-91.37 -10.52)"/><circle class="cls-1" cx="67.08" cy="98.8" r="5.67"/><circle class="cls-1" cx="67.08" cy="206.16" r="5.67"/><circle class="cls-1" cx="283.08" cy="78.14" r="5.67"/><circle class="cls-1" cx="175.08" cy="64.65" r="5.67"/><circle class="cls-1" cx="177.14" cy="186.14" r="5.67"/><circle class="cls-1" cx="283.08" cy="186.14" r="5.67"/><circle class="cls-1" cx="312.92" cy="259.28" r="5.67"/></svg>